/* XPM */
static char * closed_xpm[] = {
"16 16 54 1",
" 	c None",
".	c #A30E0E",
"+	c #FEF3F3",
"@	c #FAC1C1",
"#	c #F9B0B0",
"$	c #F8AEAE",
"%	c #F79C9C",
"&	c #F47777",
"*	c #F58787",
"=	c #F47373",
"-	c #F9B7B7",
";	c #F9B4B4",
">	c #F8AAAA",
",	c #F8A5A5",
"'	c #F79D9D",
")	c #F69696",
"!	c #F69494",
"~	c #EF3838",
"{	c #F68D8D",
"]	c #F25F5F",
"^	c #F8A7A7",
"/	c #F8A9A9",
"(	c #F79F9F",
"_	c #F79A9A",
":	c #F69292",
"<	c #F68F8F",
"[	c #F58989",
"}	c #F58484",
"|	c #EE2D2D",
"1	c #F57E7E",
"2	c #000000",
"3	c #F04C4C",
"4	c #F68B8B",
"5	c #ED2525",
"6	c #F36D6D",
"7	c #EF3A3A",
"8	c #F58585",
"9	c #F47A7A",
"0	c #F36A6A",
"a	c #F26464",
"b	c #ED2020",
"c	c #F26262",
"d	c #EE2929",
"e	c #F37171",
"f	c #F36868",
"g	c #F25B5B",
"h	c #F15757",
"i	c #EC1818",
"j	c #ED1C1C",
"k	c #F26060",
"l	c #F15353",
"m	c #F15050",
"n	c #F14E4E",
"o	c #EB1313",
" .....          ",
".+++++.         ",
".@@@@@+.....    ",
".##$#$$+++++.   ",
".%&...........  ",
".*.+++++++++++. ",
".=.--;#>,')!~{. ",
".].^/,(_:<[}|1.2",
".3.)!:<4}1&=56.2",
".7.*8}19=60abc.2",
".d.=ee6fc]ghih.2",
".j.kk]ghlmnnon.2",
" .............2 ",
"   22222222222  ",
"                ",
"                "};
