/* XPM */
static char *_____________[] = {
/* columns rows colors chars-per-pixel */
"16 16 72 1",
"  c #25353C",
". c #25343D",
"X c #494C3B",
"o c #203340",
"O c #223544",
"+ c #233847",
"@ c #253B4B",
"# c #313F46",
"$ c #2F414F",
"% c #344857",
"& c #4F5342",
"* c #6B6951",
"= c #BC473A",
"- c #C45F35",
"; c #E16C3F",
": c #E5783F",
"> c #A85F52",
", c #BF685B",
"< c #D04E41",
"1 c #D06140",
"2 c #D27265",
"3 c #C79A2F",
"4 c #C09833",
"5 c #D8A62E",
"6 c #EAB432",
"7 c #B59B5A",
"8 c #938F75",
"9 c #969378",
"0 c #D7B04E",
"q c #E5C77E",
"w c #9E9885",
"e c #949395",
"r c #A19B88",
"t c #A59F8C",
"y c #A7A083",
"u c #A6A08D",
"i c #A7A192",
"p c #ADA594",
"a c #ACA895",
"s c #A4A3A5",
"d c #D0BB8A",
"f c #E5D9BC",
"g c #C5C5C5",
"h c #C9C9C9",
"j c #CACACA",
"k c #CBCBCB",
"l c #CECECE",
"z c #CFCFCF",
"x c #D6D2CA",
"c c #D0D0D0",
"v c #D4D4D4",
"b c #D6D6D6",
"n c #D9D9D8",
"m c #D9D9D9",
"M c #DADADA",
"N c #DBDBDB",
"B c #DDDDDC",
"V c #DDDDDD",
"C c #E0E0E0",
"Z c #E1E1E1",
"A c #E2E2E2",
"S c #E3E3E3",
"D c #E4E4E4",
"F c #E5E5E5",
"G c #E6E6E6",
"H c #E7E7E7",
"J c #E8E8E8",
"K c #E9E9E9",
"L c #EBEBEB",
"P c #ECECEC",
"I c #EDEDED",
"U c None",
/* pixels */
"UUUUUUUUUUUUUUUU",
"UUUUUUUUUUU:;UUU",
"UULIIPGGKPp2<1UU",
"UUIIPDSDP9%s2=-U",
"UUILSSDP9@+$e>UU",
"UULHMMZ8@+Oo+uUU",
"UUHSSP9@+Oo tkUU",
"UUHSSr@+Oo rlkUU",
"UUHII0&Oo tllvUU",
"UUPIf64X.wghbMUU",
"UUIIq547pllVJPUU",
"UUII*dxxcMLPIIUU",
"UUIIIPDDSLIIIIUU",
"UUSHDVMVHSHHHVUU",
"UUUUUUUUUUUUUUUU",
"UUUUUUUUUUUUUUUU"
};
