/* XPM */
static char * imap_xpm[] = {
"16 16 117 2",
"  	c None",
". 	c #0046B5",
"+ 	c #FFFFFF",
"@ 	c #00296A",
"# 	c #C7E0FF",
"$ 	c #B5D5FF",
"% 	c #B4D5FF",
"& 	c #B5D6FF",
"* 	c #B3D5FF",
"= 	c #9FC9FF",
"- 	c #76B2FF",
"; 	c #177AFF",
"> 	c #002868",
", 	c #88BBFF",
"' 	c #005FF6",
") 	c #6FACF7",
"! 	c #339394",
"~ 	c #9CD897",
"{ 	c #9BD795",
"] 	c #75B488",
"^ 	c #A4C6E6",
"/ 	c #ACD1FA",
"( 	c #A9D1FF",
"_ 	c #A2CEFF",
": 	c #9ACAFF",
"< 	c #97C8FF",
"[ 	c #4962E5",
"} 	c #8EC3FF",
"| 	c #000000",
"1 	c #0248B0",
"2 	c #60B97F",
"3 	c #E2F4DE",
"4 	c #FAFDF9",
"5 	c #ECF8E9",
"6 	c #DCF2D7",
"7 	c #64B666",
"8 	c #86AFD8",
"9 	c #91C2F8",
"0 	c #90C4FF",
"a 	c #8AC0FF",
"b 	c #84BDFF",
"c 	c #3E5DE5",
"d 	c #7EBAFF",
"e 	c #1C6679",
"f 	c #A8DF9C",
"g 	c #F4FBF3",
"h 	c #D9F1D4",
"i 	c #B8E5AE",
"j 	c #BDE7B4",
"k 	c #7DCF6B",
"l 	c #4F8276",
"m 	c #74A7E1",
"n 	c #7BB6FB",
"o 	c #76B6FF",
"p 	c #71B2FF",
"q 	c #3658E5",
"r 	c #6CB0FF",
"s 	c #3A8C48",
"t 	c #85D273",
"u 	c #53B83C",
"v 	c #4BA636",
"w 	c #3C852B",
"x 	c #244F1A",
"y 	c #38703F",
"z 	c #5788C2",
"A 	c #66A6F1",
"B 	c #67ADFF",
"C 	c #62AAFF",
"D 	c #2F54E5",
"E 	c #5FA9FF",
"F 	c #388130",
"G 	c #2D6421",
"H 	c #7ACE67",
"I 	c #65C64F",
"J 	c #2C6120",
"K 	c #204717",
"L 	c #479A41",
"M 	c #4071AC",
"N 	c #5397E7",
"O 	c #57A4FF",
"P 	c #53A2FF",
"Q 	c #2850E5",
"R 	c #38843C",
"S 	c #337025",
"T 	c #6FCA5B",
"U 	c #8BD47A",
"V 	c #449731",
"W 	c #408E2E",
"X 	c #68C752",
"Y 	c #489E49",
"Z 	c #3366A3",
"` 	c #438CE3",
" .	c #479BFF",
"..	c #234DE5",
"+.	c #2F7440",
"@.	c #9EDB90",
"#.	c #93D784",
"$.	c #80D06E",
"%.	c #8DD57D",
"&.	c #215F52",
"*.	c #003FA3",
"=.	c #0056DE",
"-.	c #002FE1",
";.	c #0058E3",
">.	c #001A44",
",.	c #73BE61",
"'.	c #C0E8B7",
").	c #B6E4AB",
"!.	c #BCE6B2",
"~.	c #CAEBC3",
"{.	c #74B765",
"].	c #060E05",
"^.	c #479D33",
"/.	c #6FBF5D",
"(.	c #76C165",
"_.	c #499538",
":.	c #0B1908",
"                                ",
"  . . . . .                     ",
". + + + + + . @                 ",
". # # # # # + . . . . .         ",
". $ $ % & * * + + + + + . @     ",
". = - ; ; ; ; ; ; ; ; ; ; ; >   ",
". , ; + + + + + + + + + + + '   ",
". ) ! ~ { ] ^ / ( _ : < [ } ' | ",
"1 2 3 4 5 6 7 8 9 0 a b c d ' | ",
"e f g h i j k l m n o p q r ' | ",
"s t j u v w x y z A B C D E ' | ",
"F G H I J K w L M N O P Q P ' | ",
"R S T U V W X Y Z `  . ... .' | ",
"+.k @.#.$.#.%.&.*.=.' ' -.;.>.| ",
"  ,.'.).!.~.{.].| | | | | | |   ",
"    ^./.(._.:.                  "};
