/* XPM */
static char *_____________[] = {
/* columns rows colors chars-per-pixel */
"16 16 50 1",
"  c #575757",
". c #6A6A6A",
"X c #6B6B6B",
"o c #717171",
"O c #747474",
"+ c #787878",
"@ c #797979",
"# c #7E7E7E",
"$ c #848484",
"% c #8B8B8B",
"& c #8E8E8E",
"* c #8F8F8F",
"= c #909090",
"- c #939393",
"; c #969696",
": c #9A9A9A",
"> c #9C9C9C",
", c #9E9E9E",
"< c #9F9F9F",
"1 c #A0A0A0",
"2 c #A7A7A7",
"3 c #A8A8A8",
"4 c #AEAEAE",
"5 c #B1B1B1",
"6 c #B4B4B4",
"7 c #B6B6B6",
"8 c #B8B8B8",
"9 c #BDBDBD",
"0 c #C3C3C3",
"q c #CACACA",
"w c #CFCFCF",
"e c #D0D0D0",
"r c #D2D2D2",
"t c #D3D3D3",
"y c #DBDBDB",
"u c #DCDCDC",
"i c #DEDEDE",
"p c #E4E4E4",
"a c #E9E9E9",
"s c #ECECEC",
"d c #EDEDED",
"f c #EFEFEF",
"g c #F1F1F1",
"h c #F2F2F2",
"j c #F4F4F4",
"k c #F6F6F6",
"l c #F7F7F7",
"z c #FAFAFA",
"x c #FFFFFF",
"c c None",
/* pixels */
"cccccccc11>>1ccc",
"ccccccc>thxht1cc",
"cccccc>fxkhzxf>c",
"ccccc-wxfffaaxw;",
"ccccc*kapppppak*",
"ccccc%xyyyyyiyx%",
"ccccc$fitwtttih$",
"cccccc9xqqqqqx9c",
"cccccc#ixy0yxi#c",
"cccc362@6pxp6@cc",
"cccc8x6ccOOOcccc",
"ccc:i4:ccccccccc",
"cc>a*ccccccccccc",
"@>h-cccccccccccc",
"oz;ccccccccccccc",
".. ccccccccccccc"
};
