/* XPM */
static char * local_xpm[] = {
"16 16 116 2",
"  	c None",
". 	c #0046B5",
"+ 	c #FFFFFF",
"@ 	c #C7E0FF",
"# 	c #B5D5FF",
"$ 	c #B4D5FF",
"% 	c #B5D6FF",
"& 	c #B3D5FF",
"* 	c #9FC9FF",
"= 	c #76B2FF",
"- 	c #177AFF",
"; 	c #177AFE",
"> 	c #88BBFF",
", 	c #E5E5F2",
"' 	c #A5A5D2",
") 	c #564DA4",
"! 	c #A9AACB",
"~ 	c #F6F6F6",
"{ 	c #005FF6",
"] 	c #71AEFF",
"^ 	c #BEDCFF",
"/ 	c #B8D9FE",
"( 	c #9DB9EA",
"_ 	c #7A89CD",
": 	c #999DDB",
"< 	c #D2D3FA",
"[ 	c #7672BC",
"} 	c #6972B6",
"| 	c #374AAD",
"1 	c #8CC1FC",
"2 	c #5BA1FF",
"3 	c #A9CFFC",
"4 	c #8EA8E0",
"5 	c #7B86CA",
"6 	c #A9ACE5",
"7 	c #DEE0FE",
"8 	c #FBFCFF",
"9 	c #7A73B9",
"0 	c #CDD6FF",
"a 	c #BCC1F2",
"b 	c #293482",
"c 	c #73AAE9",
"d 	c #000000",
"e 	c #4695FF",
"f 	c #316DDB",
"g 	c #848CCB",
"h 	c #BFC2F0",
"i 	c #EBEEFF",
"j 	c #FCFDFF",
"k 	c #E6E6F9",
"l 	c #766EB8",
"m 	c #E2E3FF",
"n 	c #E8E9FF",
"o 	c #6468B3",
"p 	c #4B7AB3",
"q 	c #005EF2",
"r 	c #3287FE",
"s 	c #6174C2",
"t 	c #9999D5",
"u 	c #9E9DD6",
"v 	c #A3A1D7",
"w 	c #DEDEF3",
"x 	c #ECECF8",
"y 	c #776FB6",
"z 	c #E4E5FD",
"A 	c #ECECFF",
"B 	c #F3F3FF",
"C 	c #CDCFF5",
"D 	c #354A8D",
"E 	c #0056DE",
"F 	c #207EFE",
"G 	c #2D64CA",
"H 	c #BBC3F1",
"I 	c #CAD3FC",
"J 	c #CFD1F7",
"K 	c #A5A2DA",
"L 	c #A19ED9",
"M 	c #695FAB",
"N 	c #F4F4FF",
"O 	c #F5F5FF",
"P 	c #FDFEFF",
"Q 	c #FDFFFF",
"R 	c #666FB9",
"S 	c #1274FF",
"T 	c #1772EF",
"U 	c #737EBB",
"V 	c #E6E8FF",
"W 	c #E8E7FF",
"X 	c #EFEFFF",
"Y 	c #F6F6FF",
"Z 	c #FAFAFF",
"` 	c #FBFBFF",
" .	c #CFCFF2",
"..	c #6A6DB3",
"+.	c #2B3D7D",
"@.	c #0045B2",
"#.	c #005EF4",
"$.	c #1B4FBB",
"%.	c #CDCCF1",
"&.	c #F6F7FF",
"*.	c #F5F4FF",
"=.	c #BCBDE7",
"-.	c #535BA0",
";.	c #132869",
">.	c #01145F",
",.	c #003992",
"'.	c #010103",
").	c #6A6A9F",
"!.	c #FDFCFF",
"~.	c #EBEBFC",
"{.	c #A7A6D4",
"].	c #424277",
"^.	c #0E0E24",
"/.	c #8281BC",
"(.	c #3A3A6A",
"_.	c #0B0B1B",
"  . . . . .                     ",
". + + + + + .                   ",
". @ @ @ @ @ + . . . . .         ",
". # # $ % & & + + + + + .       ",
". * = - - - - - - - ; ; - -     ",
". > - + + + + + , ' ) ! ~ + {   ",
". ] - ^ ^ / ( _ : < [ } | 1 {   ",
". 2 - 3 4 5 6 7 8 9 0 a b c { d ",
". e f g h i j + k l m n o p q d ",
". r s t u v w x y z A B C D E d ",
". F G H I J K L M N O P Q R . d ",
". S T U V W X Y Z + `  ...+.@.d ",
"  . #.$.%.B &.+ *.=.-.;.>.,.d   ",
"      '.).!.~.{.].^.d d d d     ",
"          /.(._.d               ",
"                                "};
