/* XPM */
static char *_____________[] = {
/* columns rows colors chars-per-pixel */
"16 16 19 1",
"  c #5593C6",
". c #5694C6",
"X c #5693C9",
"o c #5695C8",
"O c #5696CA",
"+ c #5696CB",
"@ c #5599D1",
"# c #559AD0",
"$ c #559AD1",
"% c #579AD0",
"& c #579AD1",
"* c #579BD1",
"= c #5798D2",
"- c #5699D3",
"; c #5799D3",
": c #579AD2",
"> c #579BD2",
", c #579BD3",
"< c None",
/* pixels */
"<<<<<<<<<<<<<<<<",
"<<<<<<<<<<<<<<<<",
"<<<<<<<<<<<<<<<<",
"<<<<<<<<<<<<<<<<",
"<<<<<.O,,,,<<<<<",
"<<<XOO%,,,,,,<<<",
"<<<OO<<<<<<,O<<<",
"<<<<<<,,,,<<<<<<",
"<<<<<,,,,=O<<<<<",
"<<<<<,<<<< <<<<<",
"<<<<<<<,,<<<<<<<",
"<<<<<<<,,<<<<<<<",
"<<<<<<<<<<<<<<<<",
"<<<<<<<<<<<<<<<<",
"<<<<<<<<<<<<<<<<",
"<<<<<<<<<<<<<<<<"
};
