/* XPM */
static char * trashcan_full_16x16_xpm[] = {
"16 16 199 2",
"  	c None",
". 	c #2C7BD2",
"+ 	c #3E8ADA",
"@ 	c #408BE0",
"# 	c #418CE1",
"$ 	c #4088DD",
"% 	c #367DD7",
"& 	c #2664B3",
"* 	c #124C98",
"= 	c #3786DA",
"- 	c #61AAF3",
"; 	c #529FF3",
"> 	c #3889E9",
", 	c #357CD5",
"' 	c #3071CB",
") 	c #1D64CB",
"! 	c #2767CA",
"~ 	c #2F6ED1",
"{ 	c #377ADB",
"] 	c #2E71CA",
"^ 	c #072C62",
"/ 	c #2F82D8",
"( 	c #6FB1F5",
"_ 	c #418ADE",
": 	c #1C6ED2",
"< 	c #306EBF",
"[ 	c #A0B1CA",
"} 	c #A8B5C8",
"| 	c #5276AB",
"1 	c #073C9F",
"2 	c #002C9B",
"3 	c #052C97",
"4 	c #2760CD",
"5 	c #2D6ECE",
"6 	c #5EA2E8",
"7 	c #4694EC",
"8 	c #3D70AD",
"9 	c #B4BBC5",
"0 	c #C8CBCF",
"a 	c #EAE6DE",
"b 	c #E8E3DC",
"c 	c #C4C0BB",
"d 	c #73829E",
"e 	c #6E80A8",
"f 	c #727EA2",
"g 	c #22469B",
"h 	c #2B76E9",
"i 	c #091C38",
"j 	c #77ADE4",
"k 	c #89C1FF",
"l 	c #5089CF",
"m 	c #DFDFDF",
"n 	c #DBD5CF",
"o 	c #C9C6C1",
"p 	c #E8E4E0",
"q 	c #E2DCD5",
"r 	c #D5CCC1",
"s 	c #E0DBD1",
"t 	c #B2C0D8",
"u 	c #3273D9",
"v 	c #1671E2",
"w 	c #00142E",
"x 	c #78ACE1",
"y 	c #CFEAFF",
"z 	c #A7CEF9",
"A 	c #A4CAF8",
"B 	c #98BCEB",
"C 	c #9EBBE5",
"D 	c #AAC4EB",
"E 	c #A1C1EE",
"F 	c #8BB2EA",
"G 	c #76A8EF",
"H 	c #4C92EF",
"I 	c #1980ED",
"J 	c #0368D1",
"K 	c #00112C",
"L 	c #75A9E1",
"M 	c #D0EAFF",
"N 	c #D8EBFD",
"O 	c #CBE6FF",
"P 	c #A9D5FE",
"Q 	c #9BC3F1",
"R 	c #89B5E9",
"S 	c #5D9CE2",
"T 	c #5EA6F4",
"U 	c #5DA9F8",
"V 	c #559FE7",
"W 	c #1D7FDF",
"X 	c #0065D0",
"Y 	c #00122D",
"Z 	c #D4EBFF",
"` 	c #DBEBFC",
" .	c #D3EBFF",
"..	c #B4D6F2",
"+.	c #9FC2E2",
"@.	c #9BC2E7",
"#.	c #8BB3D8",
"$.	c #75AADD",
"%.	c #549CE3",
"&.	c #539AE1",
"*.	c #1A7DE0",
"=.	c #0064D1",
"-.	c #75A7DF",
";.	c #D6EBFF",
">.	c #DAECFD",
",.	c #D0E7FD",
"'.	c #93BBE1",
").	c #8FBCE7",
"!.	c #83B1DE",
"~.	c #92B2D2",
"{.	c #80ADD8",
"].	c #539BE4",
"^.	c #5097E0",
"/.	c #2B86DF",
"(.	c #0666CF",
"_.	c #76A7DF",
":.	c #D8EDFF",
"<.	c #C9E4FE",
"[.	c #88BBEF",
"}.	c #80B6EC",
"|.	c #72A3D4",
"1.	c #83ACD6",
"2.	c #81B4E7",
"3.	c #64AAF1",
"4.	c #5AA0E6",
"5.	c #3C8DDB",
"6.	c #0665CD",
"7.	c #00102C",
"8.	c #75A5DC",
"9.	c #D9EBFD",
"0.	c #DEEEFD",
"a.	c #ADD0F2",
"b.	c #5496DB",
"c.	c #74A6DB",
"d.	c #7AA5D6",
"e.	c #85AFE2",
"f.	c #6FA5E2",
"g.	c #4F90DC",
"h.	c #5395DE",
"i.	c #398BDB",
"j.	c #0564CD",
"k.	c #000F2C",
"l.	c #81AEE2",
"m.	c #AACEF3",
"n.	c #BEDBF4",
"o.	c #9FC4EC",
"p.	c #3C7FCE",
"q.	c #6FA1DA",
"r.	c #81A9DC",
"s.	c #7FA6DC",
"t.	c #6497D9",
"u.	c #518DDD",
"v.	c #5893DF",
"w.	c #468DDF",
"x.	c #0B68D1",
"y.	c #00102D",
"z.	c #6092D3",
"A.	c #91C8F8",
"B.	c #B9DAF6",
"C.	c #98C3EF",
"D.	c #2274D5",
"E.	c #5D93D6",
"F.	c #6B9DDE",
"G.	c #689AE0",
"H.	c #5B8CD2",
"I.	c #5E93E0",
"J.	c #6AA0ED",
"K.	c #3E8FF5",
"L.	c #055FCE",
"M.	c #000A21",
"N.	c #0C2650",
"O.	c #5288CC",
"P.	c #C2E3FE",
"Q.	c #A5D2FF",
"R.	c #0F73E8",
"S.	c #2A7DE7",
"T.	c #3786F0",
"U.	c #4E92F6",
"V.	c #5D9AF5",
"W.	c #5E98F0",
"X.	c #5195F2",
"Y.	c #1B6BD3",
"Z.	c #00245D",
"`.	c #364E75",
" +	c #547EB7",
".+	c #2973D1",
"++	c #2A7AE0",
"@+	c #2C7EE8",
"#+	c #2D7CE8",
"$+	c #2D76DB",
"%+	c #2361BA",
"&+	c #0C3A7E",
"*+	c #001231",
"=+	c #091326",
"-+	c #0A1933",
";+	c #0A1B39",
">+	c #081835",
",+	c #021128",
"'+	c #000615",
"        . + @ # $ % & *         ",
"    = - ; > , ' ) ! ~ { ] ^     ",
"  / ( _ : < [ } | 1 2 3 4 5     ",
"  6 7 8 9 0 a b c d e f g h i   ",
"  j k l m n o p q r s t u v w   ",
"  x y z A B C D E F G H I J K   ",
"  L M N O P Q R S T U V W X Y   ",
"  L Z `  ...+.@.#.$.%.&.*.=.Y   ",
"  -.;.>.,.'.).!.~.{.].^./.(.K   ",
"  _.:.` <.[.}.|.1.2.3.4.5.6.7.  ",
"  8.9.0.a.b.c.d.e.f.g.h.i.j.k.  ",
"  l.m.n.o.p.q.r.s.t.u.v.w.x.y.  ",
"  z.A.B.C.D.E.F.G.H.I.J.K.L.M.  ",
"  N.O.P.Q.R.S.T.U.V.W.X.Y.Z.    ",
"      `. +.+++@+#+$+%+&+*+      ",
"          =+-+;+>+,+'+          "};
