/* XPM */
static char * trashcan_empty_16x16_xpm[] = {
"16 16 154 2",
"  	c None",
". 	c #55A6F0",
"+ 	c #6CB6F5",
"@ 	c #67B3F6",
"# 	c #5CA7F2",
"$ 	c #4896E8",
"% 	c #3178C8",
"& 	c #83BDEA",
"* 	c #BBEFFF",
"= 	c #BBF1FF",
"- 	c #A6E2FF",
"; 	c #82C9FF",
"> 	c #6AB7FF",
", 	c #59A8FF",
"' 	c #318DFF",
") 	c #1D78FF",
"! 	c #3469BB",
"~ 	c #5B81A5",
"{ 	c #D4FFFF",
"] 	c #BCF3FF",
"^ 	c #AFE9FF",
"/ 	c #9BDBFF",
"( 	c #7FC6FF",
"_ 	c #68B5FF",
": 	c #50A2FF",
"< 	c #2080FF",
"[ 	c #0058FF",
"} 	c #2166FF",
"| 	c #3E5B7E",
"1 	c #6987A8",
"2 	c #E5FFFF",
"3 	c #ACE8FF",
"4 	c #98DAFF",
"5 	c #7CC5FF",
"6 	c #65B4FF",
"7 	c #4099FF",
"8 	c #0C74FF",
"9 	c #0561FF",
"0 	c #7EA9FF",
"a 	c #5B728C",
"b 	c #637D9E",
"c 	c #FFFFFF",
"d 	c #E1F8FF",
"e 	c #CDF1FF",
"f 	c #B7E6FF",
"g 	c #9CD4FF",
"h 	c #85C4FF",
"i 	c #74B5FF",
"j 	c #7BB5FF",
"k 	c #9AC8FF",
"l 	c #DDFBFF",
"m 	c #48637E",
"n 	c #5A779B",
"o 	c #C1EDFF",
"p 	c #A1DAFF",
"q 	c #9AD2FF",
"r 	c #8DC9FF",
"s 	c #88C7FF",
"t 	c #83C4FF",
"u 	c #73BEFF",
"v 	c #5DB3FF",
"w 	c #A8E2FF",
"x 	c #3C5775",
"y 	c #50698A",
"z 	c #F7FFFF",
"A 	c #BCEDFF",
"B 	c #8BD2FF",
"C 	c #6CBDFF",
"D 	c #4FAAFF",
"E 	c #48A7FF",
"F 	c #4AA8FF",
"G 	c #4BA8FF",
"H 	c #52ACFF",
"I 	c #9DDBFF",
"J 	c #2F4D6D",
"K 	c #EEFFFF",
"L 	c #BCEEFF",
"M 	c #8ED3FF",
"N 	c #72C0FF",
"O 	c #57AFFF",
"P 	c #51ADFF",
"Q 	c #52ADFF",
"R 	c #50ABFF",
"S 	c #54AEFF",
"T 	c #8ED0FF",
"U 	c #224064",
"V 	c #E4FFFF",
"W 	c #BBEEFF",
"X 	c #8ED2FF",
"Y 	c #6DBCFF",
"Z 	c #4DA6FC",
"` 	c #45A1FB",
" .	c #49A4FC",
"..	c #4DA9FF",
"+.	c #57B1FF",
"@.	c #80C8FF",
"#.	c #DAFFFF",
"$.	c #B2E6FF",
"%.	c #7CC1FF",
"&.	c #53A3F9",
"*.	c #2D87F0",
"=.	c #1E7AE8",
"-.	c #1774E0",
";.	c #1673DD",
">.	c #2E89EA",
",.	c #67B5FF",
"'.	c #CCF8FF",
").	c #A7DDFF",
"!.	c #73B8FF",
"~.	c #4D9DFA",
"{.	c #2D87F6",
"].	c #247FF3",
"^.	c #207BEE",
"/.	c #1571E2",
"(.	c #0B67D7",
"_.	c #2078E1",
":.	c #C2EFFF",
"<.	c #94D0FF",
"[.	c #6FB4FE",
"}.	c #51A1FE",
"|.	c #378FFF",
"1.	c #318CFF",
"2.	c #328DFF",
"3.	c #308CFF",
"4.	c #2586FD",
"5.	c #2C7DE4",
"6.	c #D7E4FB",
"7.	c #BDE1FF",
"8.	c #87C5FF",
"9.	c #60AFFF",
"0.	c #409AFF",
"a.	c #3895FF",
"b.	c #3D97FF",
"c.	c #499DFE",
"d.	c #81BAFE",
"e.	c #CEE0FA",
"f.	c #B0BBE1",
"g.	c #FAF6FE",
"h.	c #EEF3FC",
"i.	c #D8EAFF",
"j.	c #C4E0FF",
"k.	c #C2DFFF",
"l.	c #D2E6FF",
"m.	c #F2F8FF",
"n.	c #BAC7E1",
"o.	c #8695C0",
"p.	c #D7DBF3",
"q.	c #F7F8FF",
"r.	c #E6EBF9",
"s.	c #8A9AC0",
"t.	c #354364",
"u.	c #495A7B",
"v.	c #485979",
"w.	c #334163",
"          . + @ # $ %           ",
"      & * = - ; > , ' ) !       ",
"    ~ { ] ^ / ( _ : < [ } |     ",
"    1 2 = 3 4 5 6 7 8 9 0 a     ",
"    b c d e f g h i j k l m     ",
"    n c o p q r s t u v w x     ",
"    y z A B C D E F G H I J     ",
"      K L M N O P Q R S T U     ",
"      V W X Y Z `  ...+.@.      ",
"      #.$.%.&.*.=.-.;.>.,.      ",
"      '.).!.~.{.].^./.(._.      ",
"      :.<.[.}.|.1.2.3.4.5.      ",
"      6.7.8.9.0.a.b.c.d.e.      ",
"      f.g.h.i.j.k.l.m.c n.      ",
"        o.p.q.c c c r.s.        ",
"            t.u.v.w.            "};
