/* XPM */
static char *_____________[] = {
/* columns rows colors chars-per-pixel */
"16 16 12 1",
"  c #49494A",
". c #49494B",
"X c #4A4A4A",
"o c #4A4A4B",
"O c #4B4B4B",
"+ c #49494C",
"@ c #49494D",
"# c #4A4A4C",
"$ c #4B4B4C",
"% c #4A4A4D",
"& c #4B4B4D",
"* c None",
/* pixels */
"****************",
"****************",
"****************",
"****************",
"*****$$$&&&*****",
"***$$$$$$&&$$***",
"***$$******$$***",
"******$$$$******",
"*****$.$$$$*****",
"*****$****$*****",
"*******O$*******",
"*******..*******",
"****************",
"****************",
"****************",
"****************"
};
