/* XPM */
static char * important_xpm[] = {
"16 16 114 2",
"  	c None",
". 	c #E9C93C",
"+ 	c #E9C73B",
"@ 	c #EDCE48",
"# 	c #EDCD48",
"$ 	c #E7C238",
"% 	c #E8C63A",
"& 	c #F2D656",
"* 	c #F3D659",
"= 	c #E5BF36",
"- 	c #E8C53A",
"; 	c #EDCE49",
"> 	c #F4D95D",
", 	c #EAC543",
"' 	c #E3B932",
") 	c #F4D95B",
"! 	c #F2D347",
"~ 	c #F0CB3A",
"{ 	c #F1CF55",
"] 	c #E8BF3E",
"^ 	c #E1B42E",
"/ 	c #E0B12D",
"( 	c #DFAE2B",
"_ 	c #EACA3D",
": 	c #EFD54D",
"< 	c #F2DC58",
"[ 	c #F5DE5E",
"} 	c #F5DE60",
"| 	c #F6DC5F",
"1 	c #F3D448",
"2 	c #EFC92D",
"3 	c #EEC429",
"4 	c #EDC435",
"5 	c #EFC950",
"6 	c #EEC44C",
"7 	c #EBBE45",
"8 	c #E7B73D",
"9 	c #E2B033",
"0 	c #DBA625",
"a 	c #EED24C",
"b 	c #F6E163",
"c 	c #F4D641",
"d 	c #F2CF32",
"e 	c #F0CB2E",
"f 	c #EFC62A",
"g 	c #EDC126",
"h 	c #EBBC22",
"i 	c #EAB71F",
"j 	c #E9B420",
"k 	c #ECBE47",
"l 	c #E4B236",
"m 	c #DBA524",
"n 	c #E6C137",
"o 	c #EDCE4A",
"p 	c #F5DB5E",
"q 	c #F1CD30",
"r 	c #EFC82C",
"s 	c #EEC327",
"t 	c #ECBE24",
"u 	c #EAB820",
"v 	c #E9B41C",
"w 	c #ECC049",
"x 	c #E4B237",
"y 	c #DBA424",
"z 	c #E4BC34",
"A 	c #F2D559",
"B 	c #F2D046",
"C 	c #EDC025",
"D 	c #EBBB22",
"E 	c #E9B61D",
"F 	c #E9B421",
"G 	c #EBBD46",
"H 	c #DAA423",
"I 	c #EAC644",
"J 	c #F2D257",
"K 	c #EDC227",
"L 	c #ECBD23",
"M 	c #E9B31B",
"N 	c #EAB936",
"O 	c #E6B33A",
"P 	c #D89F20",
"Q 	c #E2B52F",
"R 	c #ECC849",
"S 	c #F1CC49",
"T 	c #EDC331",
"U 	c #EEC442",
"V 	c #EDC346",
"W 	c #EAB62C",
"X 	c #E8B126",
"Y 	c #E7B43C",
"Z 	c #D5971B",
"` 	c #E0B22D",
" .	c #EECA4D",
"..	c #F1CE54",
"+.	c #EFC850",
"@.	c #E8BA40",
"#.	c #E5B539",
"$.	c #EBBA44",
"%.	c #E8B33E",
"&.	c #D28F16",
"*.	c #DFAF2B",
"=.	c #EFCB50",
"-.	c #E5B739",
";.	c #DCA725",
">.	c #DAA424",
",.	c #D9A121",
"'.	c #D79A1D",
").	c #DDA32A",
"!.	c #E5AE39",
"~.	c #CF8811",
"{.	c #DEAC29",
"].	c #DCA927",
"^.	c #CF8710",
"/.	c #CC810C",
"                                ",
"              . +               ",
"              @ # $             ",
"            % & * =             ",
"          - ; > * , '           ",
"    . + - ; ) ! ~ { ] ^ / (     ",
"_ : < [ } | 1 2 3 4 5 6 7 8 9 0 ",
"  % a b c d e f g h i j k l m   ",
"    n o p q r s t u v w x y     ",
"      z A B 3 C D E F G H       ",
"        I J K L i M N O P       ",
"      Q R S T U V W X Y Z       ",
"      `  ...+.@.#.G $.%.&.      ",
"      *.=.-.;.>.,.'.).!.~.      ",
"      {.].0           ^./.      ",
"                                "};
