/* XPM */
static char * letter_xpm[] = {
"16 16 18 1",
" 	c None",
".	c #CFDAE4",
"+	c #E9F0F6",
"@	c #DDE6EE",
"#	c #F2F6F8",
"$	c #D9E2EA",
"%	c #D7E1EB",
"&	c #94AE6B",
"*	c #FBFCF7",
"=	c #BBCC9E",
"-	c #F0F5E3",
";	c #EFF4E0",
">	c #E7EFD1",
",	c #E4EDCB",
"'	c #B1C882",
")	c #D4EA95",
"!	c #B8B7AD",
"~	c #E2F1B7",
"                ",
"                ",
"                ",
"................",
".+@##########@+.",
".++.########.++.",
".++$.######.$++.",
".+++$.####.$+++.",
".+++%$.##.$&&&+.",
".++%+++..++&*&+.",
".+%++++++&&=-=&&",
".++++++++&;>,>;&",
".........&&')'&&",
"         !!&~&!!",
"           &&&  ",
"           !!!  "};
