/* XPM */
static char * no_letter_xpm[] = {
"16 16 7 1",
" 	c None",
".	c #CFDAE4",
"+	c #E9F0F6",
"@	c #DDE6EE",
"#	c #F2F6F8",
"$	c #D9E2EA",
"%	c #D7E1EB",
"                ",
"                ",
"                ",
"................",
".+@##########@+.",
".++.########.++.",
".++$.######.$++.",
".+++$.####.$+++.",
".+++%$.##.$%+++.",
".++%+++..+++%++.",
".+%++++++++++%+.",
".++++++++++++++.",
"................",
"                ",
"                ",
"                "};
