/* XPM */
static char * opened_xpm[] = {
"16 16 50 1",
" 	c None",
".	c #920C0C",
"+	c #FAC6C6",
"@	c #F79C9C",
"#	c #F69090",
"$	c #F68F8F",
"%	c #F57E7E",
"&	c #F47878",
"*	c #EE2E2E",
"=	c #F36A6A",
"-	c #F04646",
";	c #F9B5B5",
">	c #F25959",
",	c #EC1616",
"'	c #F58484",
")	c #F47C7C",
"!	c #F47777",
"~	c #F47373",
"{	c #ED1E1E",
"]	c #F36B6B",
"^	c #F04848",
"/	c #ED2727",
"(	c #F47575",
"_	c #F37171",
":	c #F36868",
"<	c #F26464",
"[	c #F25B5B",
"}	c #000000",
"|	c #EF3838",
"1	c #DE1212",
"2	c #F36666",
"3	c #F26060",
"4	c #F15555",
"5	c #E51313",
"6	c #F14E4E",
"7	c #ED2525",
"8	c #F15757",
"9	c #F15353",
"0	c #F04C4C",
"a	c #F04A4A",
"b	c #E41313",
"c	c #DC1212",
"d	c #F04343",
"e	c #EF3F3F",
"f	c #EF3B3B",
"g	c #E21313",
"h	c #EF3D3D",
"i	c #EF3A3A",
"j	c #EF3434",
"k	c #EE3030",
" .....          ",
".+++++.         ",
".@@@@@+....     ",
".##$#$$++++.    ",
".%&%%*........  ",
".===-.;+++++++. ",
".>>>,.'%)!~{]]. ",
".^^/.&(_]:<,[.} ",
".||1.=23[>456.} ",
".75.[>8960ab.}  ",
".c..0aa-defc.}  ",
"..g0ehfi|jk.}   ",
" ...........}   ",
"   }}}}}}}}}    ",
"                ",
"                "};
